<mxfile host="Electron" modified="2024-06-06T10:03:18.831Z" agent="Mozilla/5.0 (Windows NT 10.0; Win64; x64) AppleWebKit/537.36 (KHTML, like Gecko) draw.io/24.4.8 Chrome/124.0.6367.207 Electron/30.0.6 Safari/537.36" etag="68ORjVt_1rM5As930o0N" version="24.4.8" type="device">
  <diagram name="Page-1" id="Cn6raPUFwpUw_SaAubrU">
    <mxGraphModel dx="989" dy="577" grid="1" gridSize="10" guides="1" tooltips="1" connect="1" arrows="1" fold="1" page="1" pageScale="1" pageWidth="850" pageHeight="1100" math="0" shadow="0">
      <root>
        <mxCell id="0" />
        <mxCell id="1" parent="0" />
        <mxCell id="8O2VHt6H5XsThVxWUx9o-10" style="edgeStyle=orthogonalEdgeStyle;rounded=0;orthogonalLoop=1;jettySize=auto;html=1;exitX=0;exitY=0.5;exitDx=0;exitDy=0;entryX=0.5;entryY=0;entryDx=0;entryDy=0;" parent="1" source="8O2VHt6H5XsThVxWUx9o-1" target="8O2VHt6H5XsThVxWUx9o-2" edge="1">
          <mxGeometry relative="1" as="geometry" />
        </mxCell>
        <mxCell id="8O2VHt6H5XsThVxWUx9o-11" style="edgeStyle=orthogonalEdgeStyle;rounded=0;orthogonalLoop=1;jettySize=auto;html=1;exitX=0;exitY=0.5;exitDx=0;exitDy=0;entryX=0.5;entryY=0;entryDx=0;entryDy=0;" parent="1" source="8O2VHt6H5XsThVxWUx9o-1" target="8O2VHt6H5XsThVxWUx9o-3" edge="1">
          <mxGeometry relative="1" as="geometry" />
        </mxCell>
        <mxCell id="8O2VHt6H5XsThVxWUx9o-12" style="edgeStyle=orthogonalEdgeStyle;rounded=0;orthogonalLoop=1;jettySize=auto;html=1;exitX=0;exitY=0.5;exitDx=0;exitDy=0;entryX=0.5;entryY=0;entryDx=0;entryDy=0;" parent="1" source="8O2VHt6H5XsThVxWUx9o-1" target="8O2VHt6H5XsThVxWUx9o-4" edge="1">
          <mxGeometry relative="1" as="geometry" />
        </mxCell>
        <mxCell id="8O2VHt6H5XsThVxWUx9o-13" style="edgeStyle=orthogonalEdgeStyle;rounded=0;orthogonalLoop=1;jettySize=auto;html=1;exitX=0;exitY=0.5;exitDx=0;exitDy=0;entryX=0.5;entryY=0;entryDx=0;entryDy=0;" parent="1" source="8O2VHt6H5XsThVxWUx9o-1" target="8O2VHt6H5XsThVxWUx9o-5" edge="1">
          <mxGeometry relative="1" as="geometry" />
        </mxCell>
        <mxCell id="8O2VHt6H5XsThVxWUx9o-14" style="edgeStyle=orthogonalEdgeStyle;rounded=0;orthogonalLoop=1;jettySize=auto;html=1;exitX=0.5;exitY=1;exitDx=0;exitDy=0;entryX=0.5;entryY=0;entryDx=0;entryDy=0;" parent="1" source="8O2VHt6H5XsThVxWUx9o-1" target="8O2VHt6H5XsThVxWUx9o-6" edge="1">
          <mxGeometry relative="1" as="geometry" />
        </mxCell>
        <mxCell id="8O2VHt6H5XsThVxWUx9o-15" style="edgeStyle=orthogonalEdgeStyle;rounded=0;orthogonalLoop=1;jettySize=auto;html=1;exitX=1;exitY=0.5;exitDx=0;exitDy=0;entryX=0.5;entryY=0;entryDx=0;entryDy=0;" parent="1" source="8O2VHt6H5XsThVxWUx9o-1" target="8O2VHt6H5XsThVxWUx9o-7" edge="1">
          <mxGeometry relative="1" as="geometry" />
        </mxCell>
        <mxCell id="8O2VHt6H5XsThVxWUx9o-16" style="edgeStyle=orthogonalEdgeStyle;rounded=0;orthogonalLoop=1;jettySize=auto;html=1;exitX=1;exitY=0.5;exitDx=0;exitDy=0;entryX=0.5;entryY=0;entryDx=0;entryDy=0;" parent="1" source="8O2VHt6H5XsThVxWUx9o-1" target="8O2VHt6H5XsThVxWUx9o-8" edge="1">
          <mxGeometry relative="1" as="geometry" />
        </mxCell>
        <mxCell id="8O2VHt6H5XsThVxWUx9o-17" style="edgeStyle=orthogonalEdgeStyle;rounded=0;orthogonalLoop=1;jettySize=auto;html=1;exitX=1;exitY=0.5;exitDx=0;exitDy=0;entryX=0.5;entryY=0;entryDx=0;entryDy=0;" parent="1" source="8O2VHt6H5XsThVxWUx9o-1" target="8O2VHt6H5XsThVxWUx9o-9" edge="1">
          <mxGeometry relative="1" as="geometry" />
        </mxCell>
        <mxCell id="8O2VHt6H5XsThVxWUx9o-1" value="Главная форма" style="rounded=0;whiteSpace=wrap;html=1;" parent="1" vertex="1">
          <mxGeometry x="405" y="20" width="120" height="60" as="geometry" />
        </mxCell>
        <mxCell id="8O2VHt6H5XsThVxWUx9o-24" style="edgeStyle=orthogonalEdgeStyle;rounded=0;orthogonalLoop=1;jettySize=auto;html=1;exitX=0.5;exitY=1;exitDx=0;exitDy=0;entryX=0.5;entryY=0;entryDx=0;entryDy=0;" parent="1" source="8O2VHt6H5XsThVxWUx9o-2" target="8O2VHt6H5XsThVxWUx9o-18" edge="1">
          <mxGeometry relative="1" as="geometry" />
        </mxCell>
        <mxCell id="8O2VHt6H5XsThVxWUx9o-2" value="Кнопка &quot;+&quot;" style="rounded=0;whiteSpace=wrap;html=1;" parent="1" vertex="1">
          <mxGeometry x="5" y="110" width="80" height="40" as="geometry" />
        </mxCell>
        <mxCell id="8O2VHt6H5XsThVxWUx9o-25" style="edgeStyle=orthogonalEdgeStyle;rounded=0;orthogonalLoop=1;jettySize=auto;html=1;exitX=0.5;exitY=1;exitDx=0;exitDy=0;entryX=0.5;entryY=0;entryDx=0;entryDy=0;" parent="1" source="8O2VHt6H5XsThVxWUx9o-3" target="8O2VHt6H5XsThVxWUx9o-20" edge="1">
          <mxGeometry relative="1" as="geometry" />
        </mxCell>
        <mxCell id="8O2VHt6H5XsThVxWUx9o-3" value="Кнопка &quot;Удалить&quot;" style="rounded=0;whiteSpace=wrap;html=1;" parent="1" vertex="1">
          <mxGeometry x="95" y="110" width="80" height="40" as="geometry" />
        </mxCell>
        <mxCell id="8O2VHt6H5XsThVxWUx9o-26" style="edgeStyle=orthogonalEdgeStyle;rounded=0;orthogonalLoop=1;jettySize=auto;html=1;exitX=0.5;exitY=1;exitDx=0;exitDy=0;entryX=0.5;entryY=0;entryDx=0;entryDy=0;" parent="1" source="8O2VHt6H5XsThVxWUx9o-4" target="8O2VHt6H5XsThVxWUx9o-21" edge="1">
          <mxGeometry relative="1" as="geometry" />
        </mxCell>
        <mxCell id="8O2VHt6H5XsThVxWUx9o-4" value="Кнопка &quot;Зашифровать&quot;" style="rounded=0;whiteSpace=wrap;html=1;" parent="1" vertex="1">
          <mxGeometry x="185" y="110" width="100" height="40" as="geometry" />
        </mxCell>
        <mxCell id="8O2VHt6H5XsThVxWUx9o-27" style="edgeStyle=orthogonalEdgeStyle;rounded=0;orthogonalLoop=1;jettySize=auto;html=1;exitX=0.5;exitY=1;exitDx=0;exitDy=0;entryX=0.5;entryY=0;entryDx=0;entryDy=0;" parent="1" source="8O2VHt6H5XsThVxWUx9o-5" target="8O2VHt6H5XsThVxWUx9o-22" edge="1">
          <mxGeometry relative="1" as="geometry" />
        </mxCell>
        <mxCell id="8O2VHt6H5XsThVxWUx9o-5" value="Кнопка &quot;Расшифровать&quot;" style="rounded=0;whiteSpace=wrap;html=1;" parent="1" vertex="1">
          <mxGeometry x="300" y="110" width="100" height="40" as="geometry" />
        </mxCell>
        <mxCell id="8O2VHt6H5XsThVxWUx9o-28" style="edgeStyle=orthogonalEdgeStyle;rounded=0;orthogonalLoop=1;jettySize=auto;html=1;exitX=0.5;exitY=1;exitDx=0;exitDy=0;entryX=0.5;entryY=0;entryDx=0;entryDy=0;" parent="1" source="8O2VHt6H5XsThVxWUx9o-6" target="8O2VHt6H5XsThVxWUx9o-23" edge="1">
          <mxGeometry relative="1" as="geometry" />
        </mxCell>
        <mxCell id="8O2VHt6H5XsThVxWUx9o-6" value="Кнопка &quot;Сохранить&quot;" style="rounded=0;whiteSpace=wrap;html=1;" parent="1" vertex="1">
          <mxGeometry x="415" y="110" width="100" height="40" as="geometry" />
        </mxCell>
        <mxCell id="8O2VHt6H5XsThVxWUx9o-7" value="ListBox" style="rounded=0;whiteSpace=wrap;html=1;" parent="1" vertex="1">
          <mxGeometry x="525" y="110" width="100" height="40" as="geometry" />
        </mxCell>
        <mxCell id="8O2VHt6H5XsThVxWUx9o-8" value="label - Заголовок" style="rounded=0;whiteSpace=wrap;html=1;" parent="1" vertex="1">
          <mxGeometry x="635" y="110" width="100" height="40" as="geometry" />
        </mxCell>
        <mxCell id="8O2VHt6H5XsThVxWUx9o-9" value="RichTextBox" style="rounded=0;whiteSpace=wrap;html=1;" parent="1" vertex="1">
          <mxGeometry x="745" y="110" width="100" height="40" as="geometry" />
        </mxCell>
        <mxCell id="8O2VHt6H5XsThVxWUx9o-30" style="edgeStyle=orthogonalEdgeStyle;rounded=0;orthogonalLoop=1;jettySize=auto;html=1;exitX=0.5;exitY=1;exitDx=0;exitDy=0;entryX=0.5;entryY=0;entryDx=0;entryDy=0;" parent="1" source="8O2VHt6H5XsThVxWUx9o-18" target="8O2VHt6H5XsThVxWUx9o-29" edge="1">
          <mxGeometry relative="1" as="geometry" />
        </mxCell>
        <mxCell id="8O2VHt6H5XsThVxWUx9o-18" value="Нажатие ЛКМ" style="rounded=0;whiteSpace=wrap;html=1;" parent="1" vertex="1">
          <mxGeometry x="5" y="180" width="75" height="30" as="geometry" />
        </mxCell>
        <mxCell id="8O2VHt6H5XsThVxWUx9o-36" style="edgeStyle=orthogonalEdgeStyle;rounded=0;orthogonalLoop=1;jettySize=auto;html=1;exitX=0.5;exitY=1;exitDx=0;exitDy=0;entryX=0.5;entryY=0;entryDx=0;entryDy=0;" parent="1" source="8O2VHt6H5XsThVxWUx9o-20" target="8O2VHt6H5XsThVxWUx9o-31" edge="1">
          <mxGeometry relative="1" as="geometry" />
        </mxCell>
        <mxCell id="8O2VHt6H5XsThVxWUx9o-20" value="Нажатие ЛКМ" style="rounded=0;whiteSpace=wrap;html=1;" parent="1" vertex="1">
          <mxGeometry x="95" y="180" width="75" height="30" as="geometry" />
        </mxCell>
        <mxCell id="8O2VHt6H5XsThVxWUx9o-37" style="edgeStyle=orthogonalEdgeStyle;rounded=0;orthogonalLoop=1;jettySize=auto;html=1;exitX=0.5;exitY=1;exitDx=0;exitDy=0;entryX=0.5;entryY=0;entryDx=0;entryDy=0;" parent="1" source="8O2VHt6H5XsThVxWUx9o-21" target="8O2VHt6H5XsThVxWUx9o-32" edge="1">
          <mxGeometry relative="1" as="geometry" />
        </mxCell>
        <mxCell id="8O2VHt6H5XsThVxWUx9o-21" value="Нажатие ЛКМ" style="rounded=0;whiteSpace=wrap;html=1;" parent="1" vertex="1">
          <mxGeometry x="185" y="180" width="105" height="30" as="geometry" />
        </mxCell>
        <mxCell id="8O2VHt6H5XsThVxWUx9o-38" style="edgeStyle=orthogonalEdgeStyle;rounded=0;orthogonalLoop=1;jettySize=auto;html=1;exitX=0.5;exitY=1;exitDx=0;exitDy=0;entryX=0.5;entryY=0;entryDx=0;entryDy=0;" parent="1" source="8O2VHt6H5XsThVxWUx9o-22" target="8O2VHt6H5XsThVxWUx9o-33" edge="1">
          <mxGeometry relative="1" as="geometry" />
        </mxCell>
        <mxCell id="8O2VHt6H5XsThVxWUx9o-22" value="Нажатие ЛКМ" style="rounded=0;whiteSpace=wrap;html=1;" parent="1" vertex="1">
          <mxGeometry x="300" y="180" width="100" height="30" as="geometry" />
        </mxCell>
        <mxCell id="8O2VHt6H5XsThVxWUx9o-40" style="edgeStyle=orthogonalEdgeStyle;rounded=0;orthogonalLoop=1;jettySize=auto;html=1;exitX=0.5;exitY=1;exitDx=0;exitDy=0;entryX=0.5;entryY=0;entryDx=0;entryDy=0;" parent="1" source="8O2VHt6H5XsThVxWUx9o-23" target="8O2VHt6H5XsThVxWUx9o-34" edge="1">
          <mxGeometry relative="1" as="geometry" />
        </mxCell>
        <mxCell id="8O2VHt6H5XsThVxWUx9o-23" value="Нажатие ЛКМ" style="rounded=0;whiteSpace=wrap;html=1;" parent="1" vertex="1">
          <mxGeometry x="415" y="180" width="105" height="30" as="geometry" />
        </mxCell>
        <mxCell id="8O2VHt6H5XsThVxWUx9o-29" value="Создание нового файла заметки и добавление его в список" style="rounded=0;whiteSpace=wrap;html=1;" parent="1" vertex="1">
          <mxGeometry x="5" y="250" width="75" height="110" as="geometry" />
        </mxCell>
        <mxCell id="8O2VHt6H5XsThVxWUx9o-31" value="Удаление файла заметки" style="rounded=0;whiteSpace=wrap;html=1;" parent="1" vertex="1">
          <mxGeometry x="95" y="250" width="75" height="110" as="geometry" />
        </mxCell>
        <mxCell id="8O2VHt6H5XsThVxWUx9o-32" value="Шифрование файла заметки (AES)" style="rounded=0;whiteSpace=wrap;html=1;" parent="1" vertex="1">
          <mxGeometry x="185" y="250" width="105" height="110" as="geometry" />
        </mxCell>
        <mxCell id="8O2VHt6H5XsThVxWUx9o-33" value="Расшифровка файла заметки" style="rounded=0;whiteSpace=wrap;html=1;" parent="1" vertex="1">
          <mxGeometry x="300" y="250" width="100" height="110" as="geometry" />
        </mxCell>
        <mxCell id="8O2VHt6H5XsThVxWUx9o-34" value="Сохранение файла заметки" style="rounded=0;whiteSpace=wrap;html=1;" parent="1" vertex="1">
          <mxGeometry x="417.5" y="250" width="100" height="110" as="geometry" />
        </mxCell>
      </root>
    </mxGraphModel>
  </diagram>
</mxfile>
